<?xml version="1.0" encoding="UTF-8"?>
<svg xmlns="http://www.w3.org/2000/svg" id="Layer_2" data-name="Layer 2" viewBox="0 0 16 16" width="512" height="512"><path d="M13,4.5H11.5V3A2.5026,2.5026,0,0,0,9,.5H3A2.5026,2.5026,0,0,0,.5,3V9A2.5026,2.5026,0,0,0,3,11.5H4.5V13A2.5026,2.5026,0,0,0,7,15.5h6A2.5026,2.5026,0,0,0,15.5,13V7A2.5026,2.5026,0,0,0,13,4.5ZM1.5,9V3A1.5017,1.5017,0,0,1,3,1.5H9A1.5017,1.5017,0,0,1,10.5,3V9A1.5017,1.5017,0,0,1,9,10.5H3A1.5017,1.5017,0,0,1,1.5,9Zm13,4A1.5017,1.5017,0,0,1,13,14.5H7A1.5017,1.5017,0,0,1,5.5,13V11.5H9A2.5026,2.5026,0,0,0,11.5,9V5.5H13A1.5017,1.5017,0,0,1,14.5,7Z"/><path d="M5.97,7.4868,8.3535,5.103a.5.5,0,1,0-.707-.707L5.333,6.709,4.3535,5.73a.5.5,0,0,0-.707.707l1.0508,1.05a.8993.8993,0,0,0,1.2724,0Z"/></svg>
