<svg id="svg8" height="512" viewBox="0 0 24 24" width="512" xmlns="http://www.w3.org/2000/svg" xmlns:svg="http://www.w3.org/2000/svg"><g id="g1561" transform="translate(0 -290.65)"><path id="path3337" d="m172 2c-5.511 0-10 4.489-10 10s4.489 10 10 10 10-4.489 10-10-4.489-10-10-10zm4.59961 6.1992188c.44246.33104.53255.9581906.20117 1.4003906l-4.49609 5.9999996c-.36504.48593-1.07554.536612-1.50586.107422l-3.50586-3.49414c-.39096-.38997-.39184-1.023023-.002-1.414063.39017-.39228 1.02473-.393133 1.41601-.002l2.6875 2.679687 3.80469-5.0761714c.34419-.4463526.97206-.5260094 1.40044-.2011248z" transform="translate(-160 290.65)" font-variant-ligatures="normal" font-variant-position="normal" font-variant-caps="normal" font-variant-numeric="normal" font-variant-alternates="normal" font-variant-east-asian="normal" font-feature-settings="normal" font-variation-settings="normal" text-indent="0" text-align="start" text-decoration-line="none" text-decoration-style="solid" text-decoration-color="rgb(0,0,0)" text-transform="none" text-orientation="mixed" white-space="normal" shape-padding="0" shape-margin="0" inline-size="0" isolation="auto" mix-blend-mode="normal" solid-color="rgb(0,0,0)" solid-opacity="1" vector-effect="none"/></g></svg>