<svg id="outline" height="512" viewBox="0 0 48 48" width="512" xmlns="http://www.w3.org/2000/svg"><path d="m24.417 40.4a39.27 39.27 0 0 1 -9.037.968c-8.608 0-13.893-2.15-13.893-3.692v-1.111c2.613 1.863 8.272 2.829 13.893 2.829a44.415 44.415 0 0 0 7.2-.563.75.75 0 0 0 -.248-1.479 42.846 42.846 0 0 1 -6.955.542c-8.608 0-13.893-2.15-13.893-3.692 0-.55.746-1.2 2.014-1.776 2.309 2.138 8.379 3.25 14.407 3.25.988 0 1.978-.03 2.94-.088a.751.751 0 0 0 .7-.794.769.769 0 0 0 -.794-.7c-.933.056-1.892.085-2.85.085-7.515 0-12.495-1.639-13.639-3.081-.014-.018-.023-.04-.038-.057a.969.969 0 0 1 -.215-.554v-1.11c2.613 1.862 8.272 2.829 13.892 2.829q1.119 0 2.2-.049a.75.75 0 0 0 -.069-1.5c-.693.031-1.4.047-2.127.047-8.607 0-13.892-2.15-13.892-3.692 0-.386.409-.845 1.1-1.284a39.213 39.213 0 0 0 10.267 1.237 46.426 46.426 0 0 0 5.322-.3.75.75 0 1 0 -.172-1.49 45.041 45.041 0 0 1 -5.15.287 36.187 36.187 0 0 1 -10.107-1.246.724.724 0 0 0 -.112-.034c-2.367-.728-3.674-1.643-3.674-2.409v-1.107c2.613 1.862 8.272 2.834 13.893 2.834a44.4 44.4 0 0 0 7.192-.561.75.75 0 0 0 -.248-1.48 42.814 42.814 0 0 1 -6.944.541c-8.608 0-13.893-2.155-13.893-3.7 0-.6.992-1.565 3.7-2.4 2.438 2.03 8.351 3.084 14.222 3.084 7.649 0 15.392-1.783 15.392-5.191v-3.47c0-3.409-7.743-5.192-15.392-5.192s-15.391 1.788-15.391 5.197v3.472a2.21 2.21 0 0 0 .19.847c-2.757.937-4.221 2.19-4.221 3.653v3.47c0 1.408 1.334 2.534 3.424 3.376a2.577 2.577 0 0 0 -.895 1.865v3.47a2.209 2.209 0 0 0 .122.7c-2.154 1.05-2.651 2.203-2.651 3.019v3.47c0 3.409 7.743 5.192 15.393 5.192a40.281 40.281 0 0 0 9.394-1.011.75.75 0 1 0 -.357-1.457zm-5.007-22.911c-8.607 0-13.892-2.15-13.892-3.691v-1.108c2.612 1.863 8.272 2.829 13.892 2.829s11.279-.966 13.89-2.829v1.11c0 1.539-5.283 3.689-13.89 3.689zm0-10.853c8.607 0 13.892 2.15 13.892 3.692s-5.285 3.691-13.892 3.691-13.892-2.15-13.892-3.691 5.282-3.692 13.892-3.692z"/><path d="m35.3 17.489a12.688 12.688 0 1 0 12.687 12.688 12.7 12.7 0 0 0 -12.687-12.688zm0 23.875a11.188 11.188 0 1 1 11.187-11.187 11.2 11.2 0 0 1 -11.187 11.187z"/><path d="m36.377 29.942v-4.9c1.791.228 2.041 1.245 2.066 1.384a.75.75 0 0 0 1.487-.2c-.014-.1-.345-2.383-3.553-2.694v-1.213a.75.75 0 1 0 -1.5 0v1.238a4.168 4.168 0 0 0 -2.577 1.178 3.413 3.413 0 0 0 -.886 2.622c.131 2.109 1.823 3.083 3.459 3.67v4.854a2.584 2.584 0 0 1 -2.414-2.158.75.75 0 1 0 -1.483.227c.173 1.126.918 2.993 3.9 3.455v1.573a.75.75 0 0 0 1.5 0v-1.5a3.722 3.722 0 0 0 3.707-2.935c.471-3.193-1.705-3.97-3.706-4.601zm-3.461-2.678a1.927 1.927 0 0 1 .48-1.5 2.583 2.583 0 0 1 1.481-.7v4.352c-1.614-.699-1.917-1.442-1.961-2.152zm5.684 7.056a2.237 2.237 0 0 1 -2.223 1.653v-4.453c1.73.58 2.478 1.065 2.223 2.8z"/></svg>