<svg id="Capa_1" enable-background="new 0 0 512 512" height="512" viewBox="0 0 512 512" width="512" xmlns="http://www.w3.org/2000/svg"><g id="XMLID_444_"><path id="XMLID_445_" d="m481.918 330.653h-266.307c5.552-23.91 9.507-48.676 12.006-73.862 22.649-5.946 45.025 10.466 44.307 31.921-1.471 6.655-2.231 10.993-2.299 11.381-.892 5.137 2.313 10.098 7.363 11.396 5.052 1.3 10.25-1.501 11.946-6.433 1.541-4.487 2.549-8.971 2.883-13.924 6.706-29.764 19.965-66.768 33.505-71.175 1.283-.418 5.159-1.678 12.443 5.247 10.219 9.059 26.844 42.079 71.166 45.843 21.489 1.824 42.499-4.508 59.152-17.831 4.312-3.45 5.012-9.743 1.561-14.056-3.45-4.313-9.743-5.012-14.056-1.562-53.755 43.006-98.644-21.673-103.64-26.503-13.32-12.893-25.203-12.64-32.825-10.156-15.194 4.95-27.751 23.045-38.389 55.323-12.2-15.2-31.664-22.909-51.404-20.176 4.597-69.087-1.536-210.498-62.24-216.48-55.374-5.461-105.986 118.417-126.24 170.222-2.011 5.144.528 10.944 5.672 12.955s10.943-.528 12.955-5.672c14.645-37.461 65.967-161.505 105.654-157.601 44.514 4.386 48.175 146.175 43.736 202.584-45.043 17.478-79.822 51.023-103.474 88.559h-75.312c-16.586 0-30.081 13.494-30.081 30.081s13.495 30.082 30.081 30.082h47.548c-2.853 9.272-5.036 18.411-6.527 27.247-5.591 33.128-.623 58.261 13.631 68.955 30.401 22.806 85.091-27.669 112.389-96.201h284.797c16.587 0 30.082-13.495 30.082-30.082-.001-16.588-13.496-30.082-30.083-30.082zm-275.252-65.928c-2.733 23.559-6.629 45.351-11.613 65.928h-65.773c19.288-27.207 45.229-51.18 77.386-65.928zm-16.934 85.928c-2.034 6.977-4.192 13.699-6.466 20.163h-76.846c3.017-6.769 6.409-13.515 10.172-20.163zm-159.651 20.163c-5.559 0-10.081-4.523-10.081-10.082s4.522-10.081 10.081-10.081h63.926c-3.421 6.686-6.507 13.427-9.244 20.163zm66.654 100.202c-6.312-4.736-10.589-21.918-5.913-49.628 1.666-9.874 4.269-20.161 7.778-30.575h76.905c-27.251 63.612-68.319 88.046-78.77 80.203zm385.183-100.202h-277.526c2.161-6.508 4.205-13.232 6.129-20.163h271.397c5.559 0 10.082 4.522 10.082 10.081s-4.523 10.082-10.082 10.082z"/><path id="XMLID_452_" d="m24.015 307.659c3.905 3.905 10.237 3.905 14.142 0l7.128-7.129 7.129 7.129c3.904 3.904 10.236 3.907 14.142 0 3.905-3.905 3.906-10.237 0-14.142l-7.129-7.129 7.129-7.129c3.905-3.905 3.905-10.237 0-14.142s-10.237-3.905-14.142.001l-7.129 7.129-7.128-7.129c-3.905-3.905-10.237-3.905-14.142-.001-3.905 3.905-3.906 10.237 0 14.142l7.129 7.129-7.129 7.129c-3.906 3.905-3.905 10.236 0 14.142z"/></g></svg>